<svg width="163" height="61" viewBox="0 0 163 61" fill="none" xmlns="http://www.w3.org/2000/svg">
<path d="M0.68 17.48H9.24V42H14.36V17.48H22.92V12.76H0.68V17.48ZM21.5944 32.08C21.5944 38.24 26.0344 42.48 32.1544 42.48C38.2744 42.48 42.7144 38.24 42.7144 32.08C42.7144 25.92 38.2744 21.68 32.1544 21.68C26.0344 21.68 21.5944 25.92 21.5944 32.08ZM26.4744 32.08C26.4744 28.48 28.7944 26.04 32.1544 26.04C35.5144 26.04 37.8344 28.48 37.8344 32.08C37.8344 35.68 35.5144 38.12 32.1544 38.12C28.7944 38.12 26.4744 35.68 26.4744 32.08ZM51.4625 42V31.36C51.4625 28.16 53.3025 26.08 56.3025 26.08C58.8225 26.08 60.4625 27.68 60.4625 31V42H65.3425V29.84C65.3425 24.72 62.7825 21.64 57.8225 21.64C55.1425 21.64 52.7425 22.8 51.5025 24.8L51.1025 22.24H46.5825V42H51.4625ZM68.0266 51.16C69.1066 51.44 70.3066 51.6 71.6666 51.6C74.9066 51.6 76.9866 50.08 78.4666 46.4L88.1466 22.24H83.1066L77.7466 36.64L72.6666 22.24H67.5066L75.4666 42.84L74.9066 44.32C74.0666 46.64 72.8666 47.08 70.9466 47.08H68.0266V51.16ZM125.38 44.2L128.66 41.28L125.54 37.8C127.82 35.16 129.1 31.56 129.1 27.36C129.1 18.44 123.26 12.24 114.9 12.24C106.54 12.24 100.74 18.48 100.74 27.36C100.74 36.28 106.5 42.48 114.86 42.48C117.62 42.48 120.1 41.8 122.18 40.6L125.38 44.2ZM123.7 27.36C123.7 29.92 123.1 32.12 122.02 33.8L118.14 29.44L114.9 32.36L118.78 36.72C117.62 37.28 116.34 37.56 114.9 37.56C109.54 37.56 106.1 33.6 106.1 27.36C106.1 21.12 109.54 17.16 114.9 17.16C120.26 17.16 123.7 21.12 123.7 27.36ZM135.585 18.28C137.185 18.28 138.505 16.96 138.505 15.32C138.505 13.68 137.185 12.4 135.585 12.4C133.905 12.4 132.585 13.68 132.585 15.32C132.585 16.96 133.905 18.28 135.585 18.28ZM133.145 42H138.025V22.24H133.145V42ZM155.256 22.24V32.6C155.256 36.36 153.776 38.16 150.696 38.16C147.976 38.16 146.496 36.64 146.496 32.88V22.24H141.616V34.6C141.616 39.44 144.296 42.52 148.856 42.52C151.496 42.52 154.056 41.24 155.256 39.36L155.616 42H160.136V22.24H155.256Z" fill="#E5E7EB"/>
</svg>
