<svg width="382" height="382" viewBox="0 0 382 382" fill="none" xmlns="http://www.w3.org/2000/svg">
<g clip-path="url(#clip0_1_57)">
<rect width="314" height="314" transform="translate(34 48)" fill="black"/>
<path d="M191.167 13C289.652 13 369.334 92.7783 369.334 191.227C369.334 289.675 289.652 369.609 191.167 369.609C92.6828 369.609 13 289.831 13 191.382C13 92.9335 92.6828 13 191.167 13Z" fill="black"/>
<path d="M191 382C85.6516 382 0 296.396 0 191.078C0 85.6038 85.6516 0 191 0C296.348 0 382 85.6038 382 190.922C382 296.241 296.348 382 191 382ZM352.007 217.072C346.486 215.281 301.571 201.983 250.389 210.052C271.727 268.546 280.382 316.415 282.023 326.282C318.731 301.631 344.845 262.482 352.007 217.072ZM254.716 341.365C252.329 327.022 242.779 277.123 219.948 217.668C219.65 217.818 219.202 217.967 218.904 217.967C126.836 250.079 93.8586 313.885 90.8742 319.853C118.48 341.365 153.248 354.215 191 354.215C213.532 354.365 235.169 349.739 254.716 341.365ZM69.8344 300.228C73.5648 293.961 118.33 219.853 202.49 192.516C204.579 191.77 206.817 191.173 208.906 190.576C204.813 181.208 200.383 171.99 195.626 162.941C114.152 187.293 35.0664 186.249 27.9039 186.1C27.9039 187.741 27.7547 189.382 27.7547 191.03C27.9039 233.008 43.7211 271.244 69.8344 300.228ZM31.3359 157.754C38.6477 157.903 105.796 158.202 182.196 137.878C155.187 89.7879 125.941 49.4511 121.762 43.5719C75.9523 65.137 41.9305 107.258 31.3359 157.754ZM152.8 32.5655C175.171 63.0134 195.509 94.904 213.681 128.03C271.727 106.22 296.199 73.3559 299.184 69.1659C269.383 42.6649 230.879 28.0451 191 28.0889C178.138 28.126 165.322 29.6279 152.8 32.5655ZM317.239 87.9913C313.807 92.6231 286.5 127.731 226.216 152.382L237.109 175.989L240.69 184.357C295.005 177.493 348.873 188.535 354.245 189.585C353.86 152.493 340.802 116.647 317.239 87.9973V87.9913Z" fill="white"/>
</g>
<defs>
<clipPath id="clip0_1_57">
<rect width="382" height="382" fill="white"/>
</clipPath>
</defs>
</svg>
