<svg width="392" height="382" viewBox="0 0 392 382" fill="none" xmlns="http://www.w3.org/2000/svg">
<path d="M196.167 25C294.652 25 374.334 104.778 374.334 203.227C374.334 301.675 294.652 381.609 196.167 381.609C97.6828 381.609 18 301.831 18 203.382C18 104.934 97.6828 25 196.167 25Z" fill="black"/>
<path d="M195.835 0C87.6922 0 0 87.6769 0 195.835C0 282.361 56.1126 355.768 133.924 381.664C143.711 383.476 147.305 377.415 147.305 372.242C147.305 367.573 147.122 352.145 147.039 335.782C92.5564 347.628 81.0602 312.676 81.0602 312.676C72.152 290.039 59.3165 284.022 59.3165 284.022C41.5492 271.867 60.6558 272.116 60.6558 272.116C80.3215 273.498 90.6765 292.297 90.6765 292.297C108.143 322.237 136.489 313.58 147.665 308.578C149.422 295.919 154.498 287.281 160.098 282.391C116.601 277.437 70.8741 260.645 70.8741 185.607C70.8741 164.228 78.5245 146.757 91.0528 133.043C89.0193 128.109 82.3166 108.192 92.9496 81.2169C92.9496 81.2169 109.395 75.9534 146.818 101.291C162.438 96.9506 179.192 94.7758 195.835 94.7021C212.478 94.7758 229.244 96.9506 244.895 101.291C282.274 75.9534 298.696 81.2169 298.696 81.2169C309.355 108.192 302.649 128.109 300.616 133.043C313.172 146.757 320.77 164.226 320.77 185.607C320.77 260.824 274.957 277.387 231.35 282.234C238.373 288.312 244.632 300.23 244.632 318.5C244.632 344.702 244.405 365.792 244.405 372.242C244.405 377.454 247.93 383.56 257.858 381.638C335.627 355.713 391.668 282.332 391.668 195.835C391.668 87.6769 303.989 0 195.835 0Z" fill="white"/>
<path d="M73.347 278.972C72.9169 279.944 71.3841 280.236 69.991 279.569C68.5703 278.93 67.7716 277.603 68.2324 276.626C68.6548 275.625 70.1876 275.346 71.6052 276.018C73.029 276.656 73.84 277.995 73.347 278.972ZM82.9801 287.567C82.0463 288.433 80.2201 288.031 78.9806 286.662C77.6997 285.297 77.4601 283.472 78.4077 282.592C79.3708 281.727 81.1417 282.131 82.4257 283.498C83.7066 284.879 83.9554 286.693 82.9786 287.568M89.5891 298.564C88.388 299.398 86.4252 298.616 85.2133 296.874C84.0138 295.134 84.0138 293.045 85.2394 292.208C86.4559 291.371 88.388 292.124 89.6168 293.852C90.8148 295.622 90.8148 297.711 89.5876 298.565M100.764 311.301C99.6907 312.484 97.4053 312.167 95.7312 310.551C94.0202 308.973 93.5425 306.732 94.6192 305.547C95.7051 304.362 98.0043 304.695 99.6907 306.297C101.391 307.873 101.909 310.131 100.764 311.301ZM115.208 315.601C114.736 317.134 112.534 317.832 110.316 317.18C108.101 316.509 106.651 314.712 107.098 313.162C107.559 311.619 109.771 310.892 112.006 311.59C114.217 312.258 115.669 314.041 115.208 315.601ZM131.648 317.425C131.703 319.04 129.822 320.38 127.494 320.409C125.151 320.46 123.258 319.152 123.233 317.564C123.233 315.933 125.071 314.606 127.412 314.568C129.741 314.522 131.648 315.82 131.648 317.425ZM147.797 316.806C148.076 318.381 146.457 320 144.146 320.43C141.873 320.845 139.769 319.873 139.478 318.311C139.196 316.695 140.845 315.078 143.114 314.658C145.43 314.256 147.502 315.204 147.797 316.806Z" fill="white"/>
</svg>
