<svg width="382" height="382" viewBox="0 0 382 382" fill="none" xmlns="http://www.w3.org/2000/svg">
<rect width="314" height="314" transform="translate(34 34)" fill="black"/>
<path d="M127.344 191C127.344 155.839 155.839 127.328 191 127.328C226.161 127.328 254.672 155.839 254.672 191C254.672 226.161 226.161 254.672 191 254.672C155.839 254.672 127.344 226.161 127.344 191ZM92.9238 191C92.9238 245.168 136.832 289.076 191 289.076C245.168 289.076 289.076 245.168 289.076 191C289.076 136.832 245.168 92.9238 191 92.9238C136.832 92.9238 92.9253 136.829 92.9253 191M270.04 89.035C270.039 93.5682 271.381 98.0001 273.898 101.77C276.415 105.54 279.993 108.48 284.181 110.216C288.368 111.952 292.976 112.408 297.423 111.526C301.869 110.643 305.954 108.462 309.161 105.258C312.368 102.053 314.552 97.9703 315.438 93.5247C316.324 89.079 315.872 84.4703 314.139 80.2816C312.406 76.0928 309.47 72.512 305.702 69.992C301.934 67.472 297.503 66.126 292.97 66.1242H292.96C286.884 66.127 281.057 68.5415 276.76 72.8372C272.462 77.1329 270.046 82.9587 270.04 89.035ZM113.836 346.471C95.2143 345.623 85.0928 342.521 78.3665 339.901C69.4491 336.429 63.0865 332.294 56.397 325.614C49.7074 318.933 45.5665 312.577 42.1102 303.659C39.4881 296.936 36.3863 286.812 35.5398 268.19C34.6138 248.057 34.4289 242.009 34.4289 191.003C34.4289 139.997 34.6291 133.966 35.5398 113.816C36.3878 95.1944 39.5126 85.0897 42.1102 78.3467C45.5818 69.4293 49.7165 63.0667 56.397 56.3771C63.0774 49.6875 69.4339 45.5466 78.3665 42.0903C85.0897 39.4682 95.2143 36.3664 113.836 35.5199C133.969 34.5939 140.017 34.409 191 34.409C241.983 34.409 248.037 34.6061 268.187 35.5229C286.809 36.371 296.913 39.4957 303.656 42.0933C312.574 45.5497 318.936 49.6997 325.626 56.3801C332.316 63.0606 336.441 69.4323 339.913 78.3497C342.535 85.0729 345.637 95.1975 346.483 113.819C347.409 133.969 347.594 140 347.594 191.006C347.594 242.012 347.409 248.043 346.483 268.193C345.635 286.815 342.518 296.936 339.913 303.662C336.441 312.58 332.306 318.942 325.626 325.617C318.946 332.291 312.574 336.432 303.656 339.904C296.933 342.526 286.809 345.627 268.187 346.474C248.054 347.4 242.006 347.585 191 347.585C139.994 347.585 133.963 347.4 113.836 346.474M112.255 1.1567C91.9214 2.08267 78.0273 5.30674 65.8935 10.0283C53.3348 14.9041 42.6893 21.4455 32.059 32.059C21.4287 42.6725 14.9041 53.3196 10.0283 65.8935C5.30675 78.035 2.08267 91.9214 1.1567 112.255C0.215449 132.62 0 139.131 0 191C0 242.869 0.215449 249.38 1.1567 269.745C2.08267 290.08 5.30675 303.965 10.0283 316.107C14.9041 328.665 21.4302 339.332 32.059 349.941C42.6877 360.55 53.3196 367.082 65.8935 371.972C78.0502 376.693 91.9214 379.917 112.255 380.843C132.63 381.769 139.131 382 191 382C242.87 382 249.38 381.785 269.745 380.843C290.08 379.917 303.965 376.693 316.107 371.972C328.665 367.082 339.311 360.554 349.941 349.941C360.571 339.328 367.082 328.665 371.972 316.107C376.693 303.965 379.933 290.079 380.843 269.745C381.769 249.365 381.985 242.869 381.985 191C381.985 139.131 381.769 132.62 380.843 112.255C379.917 91.9199 376.693 78.0273 371.972 65.8935C367.082 53.3348 360.555 42.6893 349.941 32.059C339.328 21.4287 328.665 14.9041 316.122 10.0283C303.965 5.30674 290.079 2.06739 269.761 1.1567C249.393 0.226145 242.885 0 191.023 0C139.161 0 132.638 0.215449 112.262 1.1567" fill="white"/>
</svg>
